<svg xmlns="http://www.w3.org/2000/svg" version="1.1" xmlns:xlink="http://www.w3.org/1999/xlink" xmlns:svgjs="http://svgjs.dev/svgjs" width="1440" height="560" preserveAspectRatio="none" viewBox="0 0 1440 560"><g mask="url(&quot;#SvgjsMask1102&quot;)" fill="none"><rect width="1440" height="560" x="0" y="0" fill="url(&quot;#SvgjsLinearGradient1103&quot;)"></rect><path d="M1440 0L1337.48 0L1440 212.76z" fill="rgba(255, 255, 255, .1)"></path><path d="M1337.48 0L1440 212.76L1440 361.15999999999997L961.31 0z" fill="rgba(255, 255, 255, .075)"></path><path d="M961.31 0L1440 361.15999999999997L1440 390.99999999999994L524.41 0z" fill="rgba(255, 255, 255, .05)"></path><path d="M524.4100000000001 0L1440 390.99999999999994L1440 419.99999999999994L332.8500000000001 0z" fill="rgba(255, 255, 255, .025)"></path><path d="M0 560L592.45 560L0 382.16999999999996z" fill="rgba(0, 0, 0, .1)"></path><path d="M0 382.16999999999996L592.45 560L834.22 560L0 179.32999999999996z" fill="rgba(0, 0, 0, .075)"></path><path d="M0 179.32999999999998L834.22 560L970.52 560L0 142.36999999999998z" fill="rgba(0, 0, 0, .05)"></path><path d="M0 142.37L970.52 560L1128.72 560L0 59.31z" fill="rgba(0, 0, 0, .025)"></path></g><defs><mask id="SvgjsMask1102"><rect width="1440" height="560" fill="#ffffff"></rect></mask><linearGradient x1="15.28%" y1="-39.29%" x2="84.72%" y2="139.29%" gradientUnits="userSpaceOnUse" id="SvgjsLinearGradient1103"><stop stop-color="#0e2a47" offset="0"></stop><stop stop-color="rgba(139, 0, 158, 1)" offset="1"></stop></linearGradient></defs></svg>