<svg xmlns="http://www.w3.org/2000/svg" version="1.1" xmlns:xlink="http://www.w3.org/1999/xlink" xmlns:svgjs="http://svgjs.dev/svgjs" width="1440" height="560" preserveAspectRatio="none" viewBox="0 0 1440 560"><g mask="url(&quot;#SvgjsMask1172&quot;)" fill="none"><rect width="1440" height="560" x="0" y="0" fill="url(&quot;#SvgjsLinearGradient1173&quot;)"></rect><path d="M1440 0L728.46 0L1440 165.29z" fill="rgba(255, 255, 255, .1)"></path><path d="M728.46 0L1440 165.29L1440 183.5L491.70000000000005 0z" fill="rgba(255, 255, 255, .075)"></path><path d="M491.70000000000005 0L1440 183.5L1440 358.28999999999996L245.44000000000005 0z" fill="rgba(255, 255, 255, .05)"></path><path d="M245.44000000000005 0L1440 358.28999999999996L1440 488.94999999999993L106.20000000000005 0z" fill="rgba(255, 255, 255, .025)"></path><path d="M0 560L137.17 560L0 443.44z" fill="rgba(0, 0, 0, .1)"></path><path d="M0 443.44L137.17 560L565.1999999999999 560L0 353.73z" fill="rgba(0, 0, 0, .075)"></path><path d="M0 353.73L565.1999999999999 560L1004.26 560L0 205.98000000000002z" fill="rgba(0, 0, 0, .05)"></path><path d="M0 205.98000000000002L1004.26 560L1163.37 560L0 166.87z" fill="rgba(0, 0, 0, .025)"></path></g><defs><mask id="SvgjsMask1172"><rect width="1440" height="560" fill="#ffffff"></rect></mask><linearGradient x1="84.72%" y1="-39.29%" x2="15.28%" y2="139.29%" gradientUnits="userSpaceOnUse" id="SvgjsLinearGradient1173"><stop stop-color="#0e2a47" offset="0"></stop><stop stop-color="rgba(158, 0, 156, 1)" offset="1"></stop></linearGradient></defs></svg>