<svg xmlns="http://www.w3.org/2000/svg" version="1.1" xmlns:xlink="http://www.w3.org/1999/xlink" xmlns:svgjs="http://svgjs.dev/svgjs" width="1440" height="560" preserveAspectRatio="none" viewBox="0 0 1440 560"><g mask="url(&quot;#SvgjsMask1116&quot;)" fill="none"><rect width="1440" height="560" x="0" y="0" fill="url(&quot;#SvgjsLinearGradient1117&quot;)"></rect><path d="M1440 0L832.41 0L1440 200.18z" fill="rgba(255, 255, 255, .1)"></path><path d="M832.41 0L1440 200.18L1440 208.48000000000002L584.67 0z" fill="rgba(255, 255, 255, .075)"></path><path d="M584.67 0L1440 208.48000000000002L1440 325.06L499.59 0z" fill="rgba(255, 255, 255, .05)"></path><path d="M499.5899999999999 0L1440 325.06L1440 411.46000000000004L418.1699999999999 0z" fill="rgba(255, 255, 255, .025)"></path><path d="M0 560L253.05 560L0 356.46000000000004z" fill="rgba(0, 0, 0, .1)"></path><path d="M0 356.46000000000004L253.05 560L657.1 560L0 165.43000000000004z" fill="rgba(0, 0, 0, .075)"></path><path d="M0 165.43L657.1 560L891.6800000000001 560L0 68.2z" fill="rgba(0, 0, 0, .05)"></path><path d="M0 68.19999999999999L891.6800000000001 560L1248.9 560L0 60.67999999999999z" fill="rgba(0, 0, 0, .025)"></path></g><defs><mask id="SvgjsMask1116"><rect width="1440" height="560" fill="#ffffff"></rect></mask><linearGradient x1="84.72%" y1="139.29%" x2="15.28%" y2="-39.29%" gradientUnits="userSpaceOnUse" id="SvgjsLinearGradient1117"><stop stop-color="#0e2a47" offset="0"></stop><stop stop-color="rgba(158, 0, 136, 1)" offset="1"></stop></linearGradient></defs></svg>